<mxfile host="app.diagrams.net" modified="2021-06-13T15:31:11.616Z" agent="5.0 (Windows NT 10.0; Win64; x64) AppleWebKit/537.36 (KHTML, like Gecko) Chrome/91.0.4472.77 Safari/537.36" etag="jgtJ3tTCxSLDSQKtaZ0a" version="14.7.7" type="github">
  <diagram id="C5RBs43oDa-KdzZeNtuy" name="Page-1">
    <mxGraphModel dx="813" dy="435" grid="1" gridSize="10" guides="1" tooltips="1" connect="1" arrows="1" fold="1" page="1" pageScale="1" pageWidth="1654" pageHeight="2336" math="0" shadow="0">
      <root>
        <mxCell id="WIyWlLk6GJQsqaUBKTNV-0" />
        <mxCell id="WIyWlLk6GJQsqaUBKTNV-1" parent="WIyWlLk6GJQsqaUBKTNV-0" />
        <mxCell id="QP7DZEH6nQP8IvO9xkXK-1" value="AppWindow" style="swimlane;" vertex="1" parent="WIyWlLk6GJQsqaUBKTNV-1">
          <mxGeometry x="10" y="57" width="200" height="200" as="geometry">
            <mxRectangle x="10" y="57" width="100" height="23" as="alternateBounds" />
          </mxGeometry>
        </mxCell>
        <mxCell id="QP7DZEH6nQP8IvO9xkXK-2" value="onCreate()" style="text;html=1;align=center;verticalAlign=middle;resizable=0;points=[];autosize=1;strokeColor=none;" vertex="1" parent="QP7DZEH6nQP8IvO9xkXK-1">
          <mxGeometry y="30" width="70" height="20" as="geometry" />
        </mxCell>
        <mxCell id="QP7DZEH6nQP8IvO9xkXK-3" value="onUpdate()" style="text;html=1;align=center;verticalAlign=middle;resizable=0;points=[];autosize=1;strokeColor=none;" vertex="1" parent="QP7DZEH6nQP8IvO9xkXK-1">
          <mxGeometry x="-5" y="50" width="80" height="20" as="geometry" />
        </mxCell>
        <mxCell id="QP7DZEH6nQP8IvO9xkXK-6" value="onDestroy()" style="text;html=1;align=center;verticalAlign=middle;resizable=0;points=[];autosize=1;strokeColor=none;" vertex="1" parent="QP7DZEH6nQP8IvO9xkXK-1">
          <mxGeometry x="-5" y="70" width="80" height="20" as="geometry" />
        </mxCell>
        <mxCell id="QP7DZEH6nQP8IvO9xkXK-8" value="" style="endArrow=none;html=1;entryX=1;entryY=0.5;entryDx=0;entryDy=0;" edge="1" parent="QP7DZEH6nQP8IvO9xkXK-1" target="QP7DZEH6nQP8IvO9xkXK-1">
          <mxGeometry width="50" height="50" relative="1" as="geometry">
            <mxPoint y="100" as="sourcePoint" />
            <mxPoint x="196" y="100" as="targetPoint" />
          </mxGeometry>
        </mxCell>
        <mxCell id="QP7DZEH6nQP8IvO9xkXK-7" value="updatePosition()" style="text;html=1;align=center;verticalAlign=middle;resizable=0;points=[];autosize=1;strokeColor=none;" vertex="1" parent="QP7DZEH6nQP8IvO9xkXK-1">
          <mxGeometry x="-5" y="100" width="100" height="20" as="geometry" />
        </mxCell>
        <mxCell id="QP7DZEH6nQP8IvO9xkXK-11" value="Window" style="rounded=0;whiteSpace=wrap;html=1;" vertex="1" parent="WIyWlLk6GJQsqaUBKTNV-1">
          <mxGeometry x="290" y="80" width="50" height="20" as="geometry" />
        </mxCell>
        <mxCell id="QP7DZEH6nQP8IvO9xkXK-12" style="edgeStyle=orthogonalEdgeStyle;rounded=0;orthogonalLoop=1;jettySize=auto;html=1;exitX=0.5;exitY=1;exitDx=0;exitDy=0;" edge="1" parent="WIyWlLk6GJQsqaUBKTNV-1" source="QP7DZEH6nQP8IvO9xkXK-11" target="QP7DZEH6nQP8IvO9xkXK-11">
          <mxGeometry relative="1" as="geometry" />
        </mxCell>
        <mxCell id="QP7DZEH6nQP8IvO9xkXK-17" value="InputListener" style="rounded=0;whiteSpace=wrap;html=1;" vertex="1" parent="WIyWlLk6GJQsqaUBKTNV-1">
          <mxGeometry x="290" y="110" width="80" height="20" as="geometry" />
        </mxCell>
        <mxCell id="QP7DZEH6nQP8IvO9xkXK-18" value="&lt;h1&gt;&lt;b&gt;&lt;font style=&quot;font-size: 15px&quot; face=&quot;Tahoma&quot;&gt;DirectX11 Engine Diagrams&lt;/font&gt;&lt;/b&gt;&lt;/h1&gt;" style="text;html=1;strokeColor=none;fillColor=none;align=center;verticalAlign=middle;whiteSpace=wrap;rounded=0;" vertex="1" parent="WIyWlLk6GJQsqaUBKTNV-1">
          <mxGeometry y="20" width="210" height="20" as="geometry" />
        </mxCell>
        <mxCell id="oIR2bRJ5-S8F_UBmujm--14" value="" style="endArrow=classic;html=1;entryX=0;entryY=0.65;entryDx=0;entryDy=0;entryPerimeter=0;edgeStyle=entityRelationEdgeStyle;exitX=1;exitY=0.25;exitDx=0;exitDy=0;" edge="1" parent="WIyWlLk6GJQsqaUBKTNV-1" source="QP7DZEH6nQP8IvO9xkXK-1" target="QP7DZEH6nQP8IvO9xkXK-11">
          <mxGeometry width="50" height="50" relative="1" as="geometry">
            <mxPoint x="210" y="80" as="sourcePoint" />
            <mxPoint x="290" y="100" as="targetPoint" />
          </mxGeometry>
        </mxCell>
        <mxCell id="oIR2bRJ5-S8F_UBmujm--15" value="" style="endArrow=classic;html=1;entryX=0;entryY=0.5;entryDx=0;entryDy=0;edgeStyle=entityRelationEdgeStyle;exitX=1;exitY=0.25;exitDx=0;exitDy=0;" edge="1" parent="WIyWlLk6GJQsqaUBKTNV-1" source="QP7DZEH6nQP8IvO9xkXK-1" target="QP7DZEH6nQP8IvO9xkXK-17">
          <mxGeometry width="50" height="50" relative="1" as="geometry">
            <mxPoint x="210" y="80" as="sourcePoint" />
            <mxPoint x="280" y="90" as="targetPoint" />
          </mxGeometry>
        </mxCell>
      </root>
    </mxGraphModel>
  </diagram>
</mxfile>
